<svg width="27" height="27" viewBox="0 0 27 27" fill="none" xmlns="http://www.w3.org/2000/svg">
<path d="M17.1562 13.275C17.7071 12.9396 18.1719 12.4801 18.5137 11.9332C18.8556 11.3863 19.0649 10.7671 19.125 10.125C19.1354 9.54437 19.0314 8.96737 18.8188 8.42696C18.6062 7.88655 18.2892 7.39332 17.8859 6.97544C17.4827 6.55755 17.001 6.22321 16.4686 5.9915C15.9361 5.75979 15.3631 5.63525 14.7825 5.625H7.48125V21.375H15.3562C15.9088 21.3691 16.4548 21.2545 16.963 21.0376C17.4712 20.8207 17.9318 20.5058 18.3183 20.1109C18.7048 19.716 19.0098 19.2489 19.2158 18.7361C19.4217 18.2234 19.5247 17.675 19.5187 17.1225V16.9875C19.5191 16.208 19.297 15.4446 18.8785 14.7869C18.46 14.1293 17.8625 13.6048 17.1562 13.275V13.275ZM9.73125 7.875H14.4562C14.9357 7.86016 15.4082 7.99232 15.8104 8.25373C16.2126 8.51515 16.5252 8.89332 16.7062 9.3375C16.8895 9.93126 16.8302 10.5734 16.5414 11.1236C16.2526 11.6738 15.7578 12.0873 15.165 12.2737C14.9348 12.3412 14.6961 12.3753 14.4562 12.375H9.73125V7.875ZM14.9062 19.125H9.73125V14.625H14.9062C15.3857 14.6102 15.8582 14.7423 16.2604 15.0037C16.6626 15.2652 16.9752 15.6433 17.1562 16.0875C17.3395 16.6813 17.2802 17.3234 16.9914 17.8736C16.7026 18.4238 16.2078 18.8373 15.615 19.0237C15.3848 19.0912 15.1461 19.1253 14.9062 19.125V19.125Z" fill="#746444"/>
</svg>
