<svg width="28" height="27" viewBox="0 0 28 27" fill="#746444" xmlns="http://www.w3.org/2000/svg">
<path d="M13.98 10.125H16.23L13.755 21.375H11.505L13.98 10.125ZM15.87 5.625C15.6475 5.625 15.43 5.69098 15.245 5.8146C15.06 5.93821 14.9158 6.11391 14.8306 6.31948C14.7455 6.52505 14.7232 6.75125 14.7666 6.96948C14.81 7.18771 14.9172 7.38816 15.0745 7.54549C15.2318 7.70283 15.4323 7.80998 15.6505 7.85338C15.8688 7.89679 16.095 7.87451 16.3005 7.78936C16.5061 7.70422 16.6818 7.56002 16.8054 7.37502C16.929 7.19001 16.995 6.9725 16.995 6.75C16.995 6.45163 16.8765 6.16548 16.6655 5.95451C16.4545 5.74353 16.1684 5.625 15.87 5.625Z" />
</svg>
