<svg width="28" height="27" viewBox="0 0 28 27" fill="#746444" xmlns="http://www.w3.org/2000/svg">
<path d="M3.875 13.7283H24.125V15.4158H19.2135C19.48 15.9752 19.6145 16.5883 19.6066 17.2078C19.6224 17.7956 19.4962 18.3786 19.2388 18.9073C18.9814 19.436 18.6004 19.8948 18.128 20.245C16.9902 21.0456 15.6175 21.4433 14.2278 21.375C13.2125 21.3819 12.207 21.1753 11.2766 20.7686C10.4269 20.4161 9.69032 19.837 9.14734 19.0944C8.64738 18.3855 8.38358 17.537 8.3934 16.6696V16.542H8.71654V16.5408H9.10072V16.542H10.6475V16.6695C10.6299 17.0648 10.708 17.4585 10.8753 17.8171C11.0427 18.1757 11.2941 18.4886 11.6084 18.729C12.3705 19.2716 13.2935 19.5409 14.2278 19.4932C15.0526 19.5471 15.8725 19.3315 16.564 18.8787C16.8204 18.6892 17.0264 18.4396 17.1639 18.152C17.3015 17.8644 17.3664 17.5474 17.353 17.2289C17.3709 16.9211 17.3141 16.6136 17.1873 16.3326C17.0606 16.0516 16.8677 15.8054 16.6251 15.6152C16.5257 15.5431 16.4225 15.4766 16.3159 15.4158H3.875V13.7283ZM18.8878 7.94229C18.4136 7.20543 17.743 6.61567 16.9516 6.23948C16.0693 5.81919 15.1017 5.60887 14.1246 5.625C12.762 5.56653 11.4224 5.98955 10.3406 6.8199C9.87615 7.1786 9.50151 7.64042 9.24629 8.16885C8.99107 8.69728 8.86227 9.27784 8.87007 9.86462C8.86613 10.4207 8.98991 10.9703 9.23187 11.471H12.1531C12.0593 11.4106 11.9446 11.352 11.8689 11.2902C11.64 11.1214 11.4541 10.9009 11.3265 10.6467C11.1989 10.3925 11.1331 10.1118 11.1344 9.82734C11.1175 9.50265 11.179 9.17866 11.3138 8.8828C11.4486 8.58693 11.6527 8.32792 11.9089 8.12769C12.557 7.67821 13.3372 7.45936 14.1246 7.5062C14.9806 7.45178 15.826 7.7202 16.4938 8.25849C16.7731 8.52151 16.9918 8.84214 17.1348 9.19815C17.2778 9.55416 17.3416 9.93701 17.3218 10.3201V10.4477H19.5754V10.3201C19.5792 9.47797 19.3405 8.65249 18.8878 7.94229V7.94229Z" />
</svg>
