<svg width="28" height="27" viewBox="0 0 28 27" fill="#746444" xmlns="http://www.w3.org/2000/svg">
<path d="M21.875 22.5V24.75H6.125V22.5H21.875ZM18.5 14.8669C18.463 15.6094 18.2425 16.3311 17.8585 16.9676C17.4744 17.6041 16.9386 18.1355 16.299 18.5144C15.6593 18.8933 14.9358 19.1078 14.1931 19.1387C13.4503 19.1697 12.7114 19.0162 12.0425 18.6919C11.2715 18.3583 10.6176 17.8021 10.1646 17.0946C9.71165 16.3871 9.48023 15.5605 9.5 14.7206V5.63063H7.25V14.8669C7.28806 15.926 7.57496 16.9612 8.08747 17.8888C8.59998 18.8164 9.3237 19.6103 10.2001 20.2062C11.0764 20.8021 12.0808 21.1833 13.1318 21.319C14.1829 21.4546 15.2511 21.3408 16.25 20.9869C17.5787 20.544 18.7316 19.6888 19.5409 18.5457C20.3502 17.4025 20.7738 16.031 20.75 14.6306V5.63063H18.5V14.8669ZM18.5 5.625H20.75H18.5ZM9.5 5.625H7.25H9.5Z" />
</svg>
