<svg width="27" height="27" viewBox="0 0 27 27" fill="none" xmlns="http://www.w3.org/2000/svg">
<path d="M11.6076 5.625L12.6631 7.11292C11.3156 8.06136 10.1397 9.23264 9.18596 10.5764C8.47546 11.5935 8.08454 12.7994 8.06321 14.0399V14.4194C8.33387 14.3836 8.58163 14.3521 8.80646 14.3249C9.01739 14.2984 9.22972 14.2846 9.4423 14.2834C9.88295 14.2705 10.3216 14.3479 10.7312 14.511C11.1408 14.674 11.5126 14.9192 11.8238 15.2314C12.1342 15.5383 12.3785 15.9056 12.5415 16.3105C12.7046 16.7154 12.783 17.1494 12.7719 17.5857C12.7967 18.0892 12.721 18.5925 12.5491 19.0663C12.3773 19.5401 12.1127 19.975 11.7709 20.3454C11.4242 20.6913 11.0094 20.9615 10.5529 21.1387C10.0963 21.3159 9.60793 21.3964 9.11865 21.375C8.53085 21.3876 7.94806 21.2647 7.41538 21.0158C6.88271 20.767 6.41445 20.3989 6.04687 19.9401C5.21457 18.8987 4.78681 17.5916 4.84247 16.2596C4.83932 14.2134 5.43197 12.2105 6.54807 10.4955C7.86797 8.52978 9.59308 6.86913 11.6076 5.625ZM21.0491 5.625L22.1031 7.11292C20.7556 8.06136 19.5797 9.23264 18.626 10.5764C17.9155 11.5935 17.5246 12.7994 17.5033 14.0399V14.4194C17.7553 14.3836 17.9945 14.3521 18.2207 14.3249C18.4407 14.2978 18.6621 14.2839 18.8838 14.2834C19.3216 14.2661 19.7582 14.3402 20.1657 14.501C20.5733 14.6617 20.9429 14.9056 21.251 15.2171C21.5526 15.5314 21.7882 15.9029 21.9439 16.3097C22.0996 16.7166 22.1722 17.1504 22.1575 17.5858C22.2086 18.5979 21.8588 19.5895 21.1837 20.3454C20.8435 20.6924 20.4337 20.9635 19.9813 21.141C19.5289 21.3184 19.0441 21.3982 18.5587 21.375C17.9673 21.3855 17.3812 21.2619 16.8445 21.0133C16.3077 20.7648 15.8343 20.3979 15.4597 19.9401C14.6116 18.9059 14.1733 17.596 14.2281 16.2596C14.2349 14.2342 14.8321 12.2548 15.9466 10.5635C17.2847 8.57975 19.0227 6.8976 21.0491 5.625Z" fill="#746444"/>
</svg>
