<svg width="28" height="27" viewBox="0 0 28 27" fill="none" xmlns="http://www.w3.org/2000/svg">
<path d="M5 11.8125C4.1 11.8125 3.3125 12.6 3.3125 13.5C3.3125 14.4 4.1 15.1875 5 15.1875C5.9 15.1875 6.6875 14.4 6.6875 13.5C6.6875 12.6 5.9 11.8125 5 11.8125ZM5 6.1875C4.1 6.1875 3.3125 6.975 3.3125 7.875C3.3125 8.775 4.1 9.5625 5 9.5625C5.9 9.5625 6.6875 8.775 6.6875 7.875C6.6875 6.975 5.9 6.1875 5 6.1875ZM5 17.4375C4.1 17.4375 3.3125 18.225 3.3125 19.125C3.3125 20.025 4.1 20.8125 5 20.8125C5.9 20.8125 6.6875 20.025 6.6875 19.125C6.6875 18.225 5.9 17.4375 5 17.4375ZM8.9375 6.75V9H24.6875V6.75H8.9375ZM8.9375 20.25H24.6875V18H8.9375V20.25ZM8.9375 14.625H24.6875V12.375H8.9375V14.625Z" fill="#746444"/>
</svg>
