<svg xmlns="http://www.w3.org/2000/svg" viewBox="0 0 20.374 19.914">
  <path id="Icon_awesome-book-open" data-name="Icon awesome-book-open" d="M19.179,2.252c-1.938.138-5.791.641-8.17,2.471a.738.738,0,0,0-.257.585V21.483c0,.513.447.838.823.6,2.447-1.548,5.986-1.97,7.736-2.086a1.28,1.28,0,0,0,1.062-1.363V3.617a1.245,1.245,0,0,0-1.195-1.365ZM9.364,4.723C6.986,2.894,3.133,2.391,1.195,2.252A1.245,1.245,0,0,0,0,3.617V18.635A1.279,1.279,0,0,0,1.062,20c1.751.116,5.291.538,7.738,2.087.376.238.821-.086.821-.6V5.3A.721.721,0,0,0,9.364,4.723Z" transform="translate(0 -2.25)" fill="#1b4148"/>
</svg>
