<svg width="28" height="27" viewBox="0 0 28 27" fill="#746444" xmlns="http://www.w3.org/2000/svg">
<path d="M18.5 16.875V20.25H5V22.5H18.5V25.875L23 21.375L18.5 16.875Z" />
<path d="M9.67432 2.25061C8.61711 2.2335 7.58597 2.57927 6.75278 3.23026C5.91959 3.88125 5.33469 4.79815 5.09557 5.82811C4.95828 6.48358 4.96903 7.16143 5.12702 7.81223C5.28501 8.46302 5.58627 9.07035 6.00882 9.58991C6.43137 10.1095 6.96456 10.5282 7.5695 10.8155C8.17444 11.1028 8.83588 11.2514 9.50557 11.2506V18.0006H11.7556V4.50061H14.0056V18.0006H16.2556V4.50061H18.5056V2.25061H9.67432ZM7.25557 6.75061C7.25557 6.15387 7.49263 5.58157 7.91458 5.15962C8.33654 4.73766 8.90883 4.50061 9.50557 4.50061V9.00061C8.90883 9.00061 8.33654 8.76355 7.91458 8.34159C7.49263 7.91964 7.25557 7.34734 7.25557 6.75061Z" />
</svg>
