<svg width="28" height="27" viewBox="0 0 28 27" fill="#f3ebe3" xmlns="http://www.w3.org/2000/svg">
<path d="M9.5 25.875V22.5H23V20.25H9.5V16.875L5 21.375L9.5 25.875Z" />
<path d="M11.9243 2.25061C10.8671 2.2335 9.83597 2.57927 9.00278 3.23026C8.16959 3.88125 7.58469 4.79815 7.34557 5.82811C7.20828 6.48358 7.21903 7.16143 7.37702 7.81223C7.53501 8.46302 7.83627 9.07035 8.25882 9.58991C8.68137 10.1095 9.21456 10.5282 9.8195 10.8155C10.4244 11.1028 11.0859 11.2514 11.7556 11.2506V18.0006H14.0056V4.50061H16.2556V18.0006H18.5056V4.50061H20.7556V2.25061H11.9243ZM9.50557 6.75061C9.50557 6.15387 9.74263 5.58157 10.1646 5.15962C10.5865 4.73766 11.1588 4.50061 11.7556 4.50061V9.00061C11.1588 9.00061 10.5865 8.76355 10.1646 8.34159C9.74263 7.91964 9.50557 7.34734 9.50557 6.75061Z" />
</svg>
