<svg width="27" height="27" viewBox="0 0 27 27" fill="none" xmlns="http://www.w3.org/2000/svg">
<path d="M17.7468 19.1125C18.6698 18.3029 19.4223 17.3175 19.9602 16.2139C20.4328 15.1226 20.6643 13.9421 20.6391 12.7532C20.6782 11.8053 20.52 10.8595 20.1746 9.97591C19.8291 9.09229 19.304 8.29004 18.6323 7.61995C17.9607 6.94986 17.1573 6.42654 16.2728 6.08314C15.3884 5.73974 14.4424 5.58373 13.4945 5.625C12.5421 5.58653 11.5921 5.74579 10.7043 6.09274C9.81657 6.43969 9.01031 6.96681 8.33639 7.64086C7.66994 8.34326 7.15161 9.17256 6.81223 10.0794C6.47284 10.9862 6.31936 11.9521 6.36089 12.9194C6.34411 14.0727 6.58309 15.2154 7.06064 16.2654C7.59441 17.3511 8.3399 18.3191 9.25327 19.1125H6.09131V21.375H12.3251V21.3263H12.3234V18.9462C11.282 18.3507 10.4239 17.481 9.84259 16.4316C9.2521 15.3415 8.95285 14.1175 8.97378 12.8779C8.90804 11.5444 9.35077 10.2356 10.2126 9.2159C10.6253 8.7599 11.1332 8.40015 11.7003 8.16208C12.2675 7.92402 12.88 7.81345 13.4945 7.8382C14.107 7.81564 14.7171 7.92615 15.2827 8.1621C15.8483 8.39806 16.3561 8.75385 16.771 9.20495C17.6317 10.1814 18.0814 11.4528 18.0262 12.7532C18.0552 14.0229 17.7635 15.2794 17.1781 16.4064C16.5945 17.4676 15.7287 18.3466 14.6766 18.9462V21.3263H14.6749V21.375H20.9086V19.1125H17.7468Z" fill="#746444"/>
</svg>
