<svg width="27" height="27" viewBox="0 0 27 27" fill="#f3ebe3" xmlns="http://www.w3.org/2000/svg">
<path d="M15.975 12.375L20.25 18H6.75L10.125 13.6125L12.4875 16.65L15.75 12.375H15.975ZM9.5625 12.375C10.4625 12.375 11.25 11.5875 11.25 10.6875C11.25 9.7875 10.4625 9 9.5625 9C8.6625 9 7.875 9.7875 7.875 10.6875C7.875 11.5875 8.6625 12.375 9.5625 12.375ZM24.75 6.75V20.25C24.75 21.4875 23.7375 22.5 22.5 22.5H4.5C3.2625 22.5 2.25 21.4875 2.25 20.25V6.75C2.25 5.5125 3.2625 4.5 4.5 4.5H22.5C23.7375 4.5 24.75 5.5125 24.75 6.75ZM22.5 9.9V6.75H4.5V20.25H22.5V9.9Z" />
</svg>
