<svg width="27" height="27" viewBox="0 0 27 27" fill="none" xmlns="http://www.w3.org/2000/svg">
<path d="M12.375 19.125H7.875C6.38316 19.125 4.95242 18.5324 3.89752 17.4775C2.84263 16.4226 2.25 14.9918 2.25 13.5C2.25 12.0082 2.84263 10.5774 3.89752 9.52252C4.95242 8.46763 6.38316 7.875 7.875 7.875H12.375V10.125H7.875C6.97989 10.125 6.12145 10.4806 5.48851 11.1135C4.85558 11.7464 4.5 12.6049 4.5 13.5C4.5 14.3951 4.85558 15.2536 5.48851 15.8865C6.12145 16.5194 6.97989 16.875 7.875 16.875H12.375V19.125ZM19.125 7.875H14.625V10.125H19.125C20.0201 10.125 20.8786 10.4806 21.5115 11.1135C22.1444 11.7464 22.5 12.6049 22.5 13.5C22.5 14.3951 22.1444 15.2536 21.5115 15.8865C20.8786 16.5194 20.0201 16.875 19.125 16.875H14.625V19.125H19.125C20.6168 19.125 22.0476 18.5324 23.1025 17.4775C24.1574 16.4226 24.75 14.9918 24.75 13.5C24.75 12.0082 24.1574 10.5774 23.1025 9.52252C22.0476 8.46763 20.6168 7.875 19.125 7.875V7.875ZM18 12.375H9V14.625H18V12.375Z" fill="#746444"/>
</svg>
